<?xml version="1.0" encoding="utf-8"?>
<svg version="1.1" xmlns:xlink="http://www.w3.org/1999/xlink" width="120px" height="42px" xmlns="http://www.w3.org/2000/svg">
  <defs>
    <linearGradient gradientUnits="userSpaceOnUse" x1="657" y1="9" x2="657" y2="51" id="LinearGradient90">
      <stop id="Stop91" stop-color="#ffffff" stop-opacity="0" offset="0" />
      <stop id="Stop92" stop-color="#cbd8fc" stop-opacity="0.2" offset="0.72" />
      <stop id="Stop93" stop-color="#a9befb" stop-opacity="0.298039215686275" offset="1" />
    </linearGradient>
    <linearGradient gradientUnits="userSpaceOnUse" x1="657" y1="9" x2="657" y2="51" id="LinearGradient94">
      <stop id="Stop95" stop-color="#a9befb" stop-opacity="0.2" offset="0" />
      <stop id="Stop96" stop-color="#a9befb" stop-opacity="0.4" offset="0.99" />
    </linearGradient>
  </defs>
  <g transform="matrix(1 0 0 1 -597 -9 )">
    <path d="M 597.5 13  A 3.5 3.5 0 0 1 601 9.5 L 713 9.5  A 3.5 3.5 0 0 1 716.5 13 L 716.5 47  A 3.5 3.5 0 0 1 713 50.5 L 601 50.5  A 3.5 3.5 0 0 1 597.5 47 L 597.5 13  Z " fill-rule="nonzero" fill="url(#LinearGradient90)" stroke="none" />
    <path d="M 597.5 13  A 3.5 3.5 0 0 1 601 9.5 L 713 9.5  A 3.5 3.5 0 0 1 716.5 13 L 716.5 47  A 3.5 3.5 0 0 1 713 50.5 L 601 50.5  A 3.5 3.5 0 0 1 597.5 47 L 597.5 13  Z " stroke-width="1" stroke="url(#LinearGradient94)" fill="none" />
  </g>
</svg>